<mxfile host="65bd71144e">
    <diagram id="6AE-VfL86Ja0F5IGZyDX" name="Page-1">
        <mxGraphModel dx="2209" dy="1730" grid="1" gridSize="10" guides="1" tooltips="1" connect="1" arrows="1" fold="1" page="1" pageScale="1" pageWidth="827" pageHeight="1169" math="0" shadow="0">
            <root>
                <mxCell id="0"/>
                <mxCell id="1" parent="0"/>
                <mxCell id="4" style="edgeStyle=none;html=1;" parent="1" source="2" edge="1">
                    <mxGeometry relative="1" as="geometry">
                        <mxPoint x="50" y="330" as="targetPoint"/>
                    </mxGeometry>
                </mxCell>
                <mxCell id="2" value="main" style="rounded=0;whiteSpace=wrap;html=1;" parent="1" vertex="1">
                    <mxGeometry x="150" y="270" width="70" height="360" as="geometry"/>
                </mxCell>
                <mxCell id="3" value="client / live&amp;nbsp;" style="rounded=0;whiteSpace=wrap;html=1;" parent="1" vertex="1">
                    <mxGeometry x="-110" y="410" width="120" height="60" as="geometry"/>
                </mxCell>
                <mxCell id="5" value="develop" style="rounded=0;whiteSpace=wrap;html=1;fillColor=#FF9933;" parent="1" vertex="1">
                    <mxGeometry x="270" y="270" width="70" height="365" as="geometry"/>
                </mxCell>
                <mxCell id="7" value="JIRA&lt;br&gt;FR-1000&lt;br&gt;FR-1001&lt;br&gt;FE-2220" style="rounded=0;whiteSpace=wrap;html=1;" parent="1" vertex="1">
                    <mxGeometry x="540" y="20" width="120" height="60" as="geometry"/>
                </mxCell>
                <mxCell id="8" value="ram&lt;br&gt;FR - 1001" style="rounded=0;whiteSpace=wrap;html=1;" parent="1" vertex="1">
                    <mxGeometry x="540" y="370" width="120" height="60" as="geometry"/>
                </mxCell>
                <mxCell id="9" value="hari&lt;br&gt;FR - 10000" style="rounded=0;whiteSpace=wrap;html=1;" parent="1" vertex="1">
                    <mxGeometry x="540" y="240" width="120" height="60" as="geometry"/>
                </mxCell>
                <mxCell id="10" value="nivi&lt;br&gt;FR - 3000" style="rounded=0;whiteSpace=wrap;html=1;" parent="1" vertex="1">
                    <mxGeometry x="540" y="550" width="120" height="60" as="geometry"/>
                </mxCell>
                <mxCell id="12" value="" style="endArrow=classic;html=1;" parent="1" edge="1">
                    <mxGeometry width="50" height="50" relative="1" as="geometry">
                        <mxPoint x="350" y="280" as="sourcePoint"/>
                        <mxPoint x="440" y="280" as="targetPoint"/>
                    </mxGeometry>
                </mxCell>
                <mxCell id="13" value="FR - 1000" style="rounded=0;whiteSpace=wrap;html=1;fillColor=#FF9933;" parent="1" vertex="1">
                    <mxGeometry x="270" y="210" width="70" height="60" as="geometry"/>
                </mxCell>
                <mxCell id="15" value="FR - 3000" style="rounded=0;whiteSpace=wrap;html=1;fillColor=#FF9933;" parent="1" vertex="1">
                    <mxGeometry x="270" y="90" width="70" height="60" as="geometry"/>
                </mxCell>
                <mxCell id="17" value="FR - 3003" style="rounded=0;whiteSpace=wrap;html=1;fillColor=#FF9933;" parent="1" vertex="1">
                    <mxGeometry x="270" y="-30" width="70" height="60" as="geometry"/>
                </mxCell>
                <mxCell id="19" value="" style="rounded=0;whiteSpace=wrap;html=1;fillColor=#FFFF99;" parent="1" vertex="1">
                    <mxGeometry x="240" y="-30" width="20" height="300" as="geometry"/>
                </mxCell>
                <mxCell id="24" value="FR - 1000" style="rounded=0;whiteSpace=wrap;html=1;" parent="1" vertex="1">
                    <mxGeometry x="150" y="210" width="70" height="60" as="geometry"/>
                </mxCell>
                <mxCell id="25" value="FR - 1001" style="rounded=0;whiteSpace=wrap;html=1;" parent="1" vertex="1">
                    <mxGeometry x="150" y="150" width="70" height="60" as="geometry"/>
                </mxCell>
                <mxCell id="26" value="FR - 3000" style="rounded=0;whiteSpace=wrap;html=1;" parent="1" vertex="1">
                    <mxGeometry x="150" y="90" width="70" height="60" as="geometry"/>
                </mxCell>
                <mxCell id="27" value="FR - 3003" style="rounded=0;whiteSpace=wrap;html=1;" parent="1" vertex="1">
                    <mxGeometry x="150" y="-30" width="70" height="60" as="geometry"/>
                </mxCell>
                <mxCell id="28" value="FR - 3010" style="rounded=0;whiteSpace=wrap;html=1;" parent="1" vertex="1">
                    <mxGeometry x="150" y="30" width="70" height="60" as="geometry"/>
                </mxCell>
                <mxCell id="29" value="" style="rounded=0;whiteSpace=wrap;html=1;fillColor=#FFFF99;" parent="1" vertex="1">
                    <mxGeometry x="120" y="-30" width="20" height="300" as="geometry"/>
                </mxCell>
                <mxCell id="30" value="FR - 3003&lt;br&gt;FR - 3004&lt;br&gt;FR - 3005" style="rounded=0;whiteSpace=wrap;html=1;fillColor=#CC0000;" parent="1" vertex="1">
                    <mxGeometry x="460" y="240" width="70" height="60" as="geometry"/>
                </mxCell>
                <mxCell id="14" value="FR - 1001" style="rounded=0;whiteSpace=wrap;html=1;fillColor=#FF6666;" parent="1" vertex="1">
                    <mxGeometry x="270" y="150" width="70" height="60" as="geometry"/>
                </mxCell>
                <mxCell id="18" value="FR - 3010" style="rounded=0;whiteSpace=wrap;html=1;fillColor=#FF6666;" parent="1" vertex="1">
                    <mxGeometry x="270" y="30" width="70" height="60" as="geometry"/>
                </mxCell>
            </root>
        </mxGraphModel>
    </diagram>
</mxfile>